<?xml version="1.0" standalone="no"?><!DOCTYPE svg PUBLIC "-//W3C//DTD SVG 1.1//EN" "http://www.w3.org/Graphics/SVG/1.1/DTD/svg11.dtd"><svg t="1777780522829" class="icon" viewBox="0 0 1024 1024" version="1.1" xmlns="http://www.w3.org/2000/svg" p-id="12190" xmlns:xlink="http://www.w3.org/1999/xlink" width="200" height="200"><path d="M929.35913876 604.55948642c-5.04869925 0-5.95487605-1.55344592-5.04869926-6.73159901 4.01306864-24.20786569 8.41449876-48.41573136 11.00357532-72.75305088 4.53088395-41.16631703 4.78979161-82.33263408-2.45962272-123.24004344-6.34323753-36.24707161-17.73517431-70.42288197-37.41215605-100.97398519-9.70903703-15.01664395-20.84206617-28.99765728-30.93946469-43.75539359-1.81235358-2.71853037-3.10689185-7.1199605-2.58907654-10.35630616 4.2719763-26.92639605 6.60214518-53.98224592 6.08432987-81.29700346-0.51781531-25.37295013-3.62470717-50.35753876-13.07483654-73.9181353-6.47269136-16.31118222-9.83849086-19.15916642-26.6674884-16.57008989-15.79336691 2.45962272-31.58673383 6.2137837-46.60337778 11.78029828-38.18887902 13.98101333-73.27086617 34.95253333-107.57613036 57.47749925-2.20071506 1.4239921-5.56651457 1.94180741-8.28504494 1.42399211-5.56651457-0.9061768-11.00357531-2.84798419-16.57008987-4.01306864-39.87177876-8.15559111-80.13191902-11.13302914-120.65096693-11.52139063-37.6710637-0.38836148-75.21267358 1.16508445-112.49537579 7.37886816-18.38244347 3.10689185-36.63543309 8.02613728-54.62951506 13.20429036-5.95487605 1.68289975-9.96794469 1.55344592-15.01664396-2.20071506-26.92639605-20.0653432-55.14733037-37.92997136-85.56897975-51.39316938-26.14967309-11.52139061-52.81716148-20.45370469-81.68536494-20.19479704-4.91924543 0-7.89668347 1.55344592-9.96794468 6.73159901-11.78029827 28.86820347-17.47626667 59.03094518-18.5118973 90.35877136-0.9061768 29.38601876 1.68289975 58.38367605 9.06176791 86.86351803 1.29453827 5.04869925 0.25890765 8.54395259-2.8479842 12.42756741-6.73159902 8.67340642-12.94538272 17.73517431-19.28862025 26.66748839-22.52496592 31.84564148-36.76488691 67.31599013-41.42522468 107.05831506-3.3657995 28.35038815-3.10689185 56.7007763-1.81235359 85.18061828 1.29453827 29.64492642 5.30760691 58.90149136 12.16865975 87.7696948 1.81235358 7.89668347 4.01306864 15.66391309 6.47269136 25.2434963-11.00357531 0-20.71261235-0.38836148-30.55110321 0-36.24707161 1.4239921-72.4941432 2.58907653-108.74121481 4.91924543-10.09739852 0.64726914-7.1199605 1.4239921-17.21735902 2.20071507v10.48576c3.75416098-0.38836148 7.50832197-0.64726914 11.26248296-1.03563062 34.8230795-2.84798419 56.83023013-4.2719763 91.78276347-5.95487604 17.21735902-0.77672297 34.30526419-1.03563061 51.5226232-1.29453828 1.94180741 0 5.04869925 0.38836148 5.56651457 1.55344592 3.75416098 8.02613728 6.86105283 16.18172839 10.74466765 25.63185779h-6.731599c-10.22685235 0.38836148-20.45370469 0.25890765-30.55110322 1.16508443-35.7292563 3.10689185-71.58796642 5.82542222-107.18776889 10.22685236-13.07483653 1.68289975-13.20429037 3.62470717-26.27912691 5.95487604v10.35630618c15.92282075-2.84798419 19.02971259-5.17815309 35.08198716-7.37886814 45.04993185-5.95487605 90.22931753-9.19122173 135.66761086-10.35630619 4.2719763-0.12945383 6.34323753 1.4239921 8.41449877 5.17815309 13.07483653 23.94895803 29.51547259 44.92047803 49.19245432 63.17346766 30.68055703 28.35038815 66.40981333 47.25064691 104.72814617 60.45493728 35.7292563 12.29811358 72.36468939 19.5475279 109.64739161 23.69005037 1.81235358 0.25890765 3.62470717 0.64726914 5.30760691 1.03563062 0.51781531 0.77672297 1.16508445 1.68289975 1.68289975 2.45962272-1.94180741 1.16508445-4.14252247 2.07126124-5.82542221 3.62470715-19.28862025 18.51189728-34.56417185 40.13068642-39.48341729 67.70435161-1.81235358 10.48576-7.37886815 14.23992098-15.14609778 17.34681283-0.38836148 0.12945383-0.77672297 0.25890765-1.03563061 0.38836148-26.14967309 10.48576-53.07606914 11.52139061-80.39082667 8.28504494-25.76131161-2.97743803-46.60337778-15.14609778-62.65565234-36.63543308-11.26248297-15.01664395-22.3955121-30.29219555-33.91690272-45.04993186-15.14609778-19.41807408-31.58673383-37.41215605-55.66514568-44.27320888-14.11046717-4.01306864-28.47984197-4.53088395-42.33140148 1.16508444-6.73159902 2.71853037-8.15559111 8.54395259-3.754161 14.49882865 3.3657995 4.40143013 7.50832197 8.54395259 12.03920593 11.65084445 28.47984197 19.5475279 50.35753876 44.92047803 64.59745976 77.80175012 6.73159902 15.40500543 13.33374419 31.06891852 21.74824296 45.43829333 20.19479703 34.30526419 49.96917728 54.62951506 87.25187951 62.00838321 31.58673383 6.34323753 63.30292148 3.3657995 94.88965531-0.38836148 5.17815309-0.64726914 6.73159902 0.51781531 6.73159901 5.95487604v12.03920594h65.76254419c0.12945383-15.79336691 0.12945383-31.71618765 0.38836149-47.50955458 0.12945383-9.32067555 1.81235358-18.77080494 4.01306864-27.70311902 2.71853037-10.61521383 7.89668347-20.0653432 16.95845136-27.96202666 0.38836148 2.58907653 0.77672297 4.01306864 0.77672296 5.56651458 0.12945383 9.19122173 0.51781531 18.38244347 0.38836148 27.57366518-0.25890765 23.43114272-0.38836148 46.73283161-0.64726913 70.16397432h73.14141234c-0.12945383-31.97509531-0.77672297-64.07964445-1.16508445-96.05473976-0.12945383-13.59265185-0.38836148-13.46319803 12.03920592-14.23992099 4.66033778-0.25890765 6.34323753 1.16508445 6.34323755 6.34323755 0 21.23042765 0.51781531 42.46085531 0.51781531 63.69128295 0 13.46319803 0.12945383 26.92639605 0.12945381 40.38959408H602.61767902v-93.98347853c0-2.07126124 0.25890765-4.14252247 0.51781529-6.47269135 7.50832197 0.51781531 10.87412148 5.56651457 13.46319804 11.26248296 6.47269136 14.49882864 7.63777581 30.16274173 7.89668346 45.69720099 0.25890765 14.49882864 0.38836148 29.12711111 0.5178153 43.62593976h67.70435161c0-14.62828247-0.12945383-29.25656494 0-43.88484742 0.12945383-27.31475753-1.29453827-54.50006124-6.60214519-81.16754962-5.17815309-26.27912691-15.79336691-49.58081581-35.85871012-67.05708247-4.40143013-3.88361482-9.0617679-7.50832197-14.7577363-12.16865975 6.86105283-1.03563061 12.55702124-1.94180741 18.25298964-2.71853038 43.88484741-5.43706075 86.99297185-13.8515595 128.41819653-30.55110321 51.39316939-20.58315852 93.07730173-53.8527921 118.57970569-106.66995358 4.53088395-9.45012939 8.80286025-13.72210569 19.67698172-12.68647505 31.71618765 2.97743803 63.69128297 3.75416098 95.53692445 6.60214518 26.53803457 2.33016889 14.11046717 1.94180741 40.51904789 5.82542222 2.58907653 0.38836148 5.04869925 0.77672297 7.6377758 1.16508444v-10.48576c-5.17815309-0.77672297-10.35630617-1.4239921-15.66391308-2.07126122-38.44778667-4.66033778-38.18887902-4.66033778-76.7661195-8.28504494-17.6057205-1.68289975-35.47034864-1.81235358-53.20552297-2.58907656-6.60214518-0.25890765-7.1199605-1.03563061-4.66033778-7.89668344 1.4239921-4.14252247 3.23634569-8.15559111 4.14252247-12.42756742 1.03563061-5.69596839 4.14252247-7.50832197 9.19122173-7.37886814 28.47984197 0.51781531 57.08913778 0.25890765 85.56897977 1.55344592 30.0332879 1.29453827 21.35988148 1.68289975 51.39316936 4.2719763v-9.96794469c-25.89076543-2.33016889-12.94538272-2.84798419-38.83614814-4.2719763-31.97509531-2.33016889-63.95019061-1.81235358-95.92528593-2.20071506z" fill="" p-id="12191"></path><path d="M782.68795259 435.10442667c-33.65799506-24.85513482-71.84687408-30.68055703-111.84810667-27.96202667-37.54160987 2.45962272-75.08321975 5.56651457-112.62482962 6.86105283-27.31475753 0.9061768-54.62951506-0.12945383-81.9442726-1.16508444-33.01072592-1.29453827-66.02145185-3.3657995-99.03217778-5.69596839-23.69005037-1.68289975-46.99173925-0.51781531-69.77561283 6.47269136-52.55825383 16.31118222-84.66280297 53.8527921-99.16163161 108.48230716-9.96794469 37.41215605-6.34323753 74.56540445 5.82542222 110.68302223 16.6995437 49.96917728 51.39316939 81.55591111 96.70200889 101.36234666 34.95253333 15.27555161 71.71742025 22.3955121 109.25903013 24.20786568 37.54160987 1.94180741 75.21267358 2.33016889 111.71865283 3.49525333 37.6710637-1.03563061 74.17704297-1.55344592 110.5535684-3.23634567 35.34089482-1.68289975 69.77561283-8.15559111 102.39797729-23.3016889 51.26371555-23.69005037 81.68536494-64.72691358 91.65330962-122.20441283 5.82542222-33.91690272 5.30760691-67.96325925-4.01306864-101.36234667-8.67340642-31.19837235-24.07841185-57.60695309-49.71026963-76.63666568z" fill="#FDBF9D" p-id="12192"></path><path d="M546.69362569 687.15102815c-1.55344592 2.45962272-1.81235358 5.82542222-3.49525334 8.1555911-9.0617679 13.46319803-31.32782617 16.44063605-46.34447013 6.47269136-5.95487605-4.01306864-10.87412148-8.54395259-13.46319803-15.40500543-0.64726914-1.55344592-3.75416098-2.45962272-5.69596838-3.62470715-1.03563061 1.81235358-2.71853037 3.49525333-3.10689186 5.43706073-0.25890765 1.68289975 0.64726914 3.62470717 1.55344592 5.17815309 8.54395259 15.01664395 22.65441975 21.8776968 43.23757828 23.94895802 5.04869925-1.55344592 13.07483653-2.97743803 19.93588938-6.47269135 9.32067555-4.78979161 16.31118222-12.16865975 16.44063605-23.04278124 0-1.68289975-2.45962272-3.49525333-3.88361482-5.17815309-1.68289975 1.55344592-4.01306864 2.71853037-5.17815307 4.53088396zM518.08432987 628.63789827c-8.02613728-0.12945383-15.27555161 7.24941431-15.2755516 15.40500543 0 8.67340642 6.73159902 15.53445925 15.66391309 15.53445927 8.54395259 0 15.27555161-6.60214518 15.27555161-15.27555161-0.12945383-8.67340642-6.86105283-15.53445925-15.6639131-15.66391309z" fill="#B1403B" p-id="12193"></path><path d="M652.84576395 503.19713975c-13.59265185 21.61878914-17.47626667 45.56774717-14.7577363 70.94069728 2.33016889 21.74824297 8.93231408 41.55467852 24.85513482 56.7007763 15.40500543 14.7577363 38.18887902 14.88719013 53.20552296-0.12945383 18.77080494-18.77080494 25.76131161-42.46085531 25.37295012-71.97632789 0.64726914-17.73517431-3.88361482-36.89434075-14.3693748-54.50006124-19.41807408-31.97509531-54.37060741-32.62236445-74.3064968-1.03563062z" fill="#FFFFFF" p-id="12194"></path><path d="M659.57736297 515.62470717c-11.13302914 16.95845136-14.23992098 35.85871013-12.03920594 55.7945995 1.94180741 17.08790518 7.24941431 32.62236445 20.19479705 44.66157036 12.55702124 11.65084445 31.06891852 11.78029827 43.36703209-0.12945383 15.27555161-14.7577363 20.97152-33.39908741 20.71261235-56.57132245 0.51781531-13.98101333-3.10689185-28.99765728-11.78029827-42.8492168-15.66391309-25.2434963-44.14375506-25.76131161-60.45493728-0.90617678z" fill="#B1403B" p-id="12195"></path><path d="M309.01639902 503.19713975c-13.59265185 21.61878914-17.47626667 45.56774717-14.7577363 70.94069728 2.33016889 21.74824297 8.93231408 41.55467852 24.85513481 56.7007763 15.40500543 14.7577363 38.18887902 14.88719013 53.20552297-0.12945383 18.77080494-18.77080494 25.76131161-42.46085531 25.37295011-71.97632789 0.64726914-17.73517431-3.88361482-36.89434075-14.3693748-54.50006124-19.28862025-31.97509531-54.24115358-32.62236445-74.30649679-1.03563062z" fill="#FFFFFF" p-id="12196"></path><path d="M315.87745185 515.62470717c-11.13302914 16.95845136-14.23992098 35.85871013-12.03920593 55.7945995 1.94180741 17.08790518 7.24941431 32.62236445 20.19479705 44.66157036 12.55702124 11.65084445 31.06891852 11.78029827 43.36703209-0.12945383 15.27555161-14.7577363 20.97152-33.39908741 20.71261235-56.57132245 0.51781531-13.98101333-3.10689185-28.99765728-11.78029827-42.8492168-15.79336691-25.2434963-44.27320889-25.76131161-60.45493729-0.90617678z" fill="#B1403B" p-id="12197"></path><path d="M91.79287703 794.07988939m-5.95487605 0a5.95487605 5.95487605 0 1 0 11.90975211 0 5.95487605 5.95487605 0 1 0-11.90975211 0Z" fill="#FFFFFF" p-id="12198"></path><path d="M124.67414914 812.59178667m-5.95487605 0a5.95487605 5.95487605 0 1 0 11.90975209 0 5.95487605 5.95487605 0 1 0-11.90975209 0Z" fill="#FFFFFF" p-id="12199"></path><path d="M149.52928395 838.22364445m-5.95487605 0a5.95487605 5.95487605 0 1 0 11.9097521 0 5.95487605 5.95487605 0 1 0-11.9097521 0Z" fill="#FFFFFF" p-id="12200"></path><path d="M171.66588839 866.05621728m-5.95487604 0a5.95487605 5.95487605 0 1 0 11.9097521 0 5.95487605 5.95487605 0 1 0-11.9097521 0Z" fill="#FFFFFF" p-id="12201"></path><path d="M196.65047703 897.90185876m-5.95487605 0a5.95487605 5.95487605 0 1 0 11.90975211 0 5.95487605 5.95487605 0 1 0-11.90975211 0Z" fill="#FFFFFF" p-id="12202"></path><path d="M232.37973333 920.68573235m-5.95487605 0a5.95487605 5.95487605 0 1 0 11.90975211 0 5.95487605 5.95487605 0 1 0-11.90975211 0Z" fill="#FFFFFF" p-id="12203"></path><path d="M289.08050963 926.64060839m-5.95487605 0a5.95487605 5.95487605 0 1 0 11.90975211 0 5.95487605 5.95487605 0 1 0-11.90975211 0Z" fill="#FFFFFF" p-id="12204"></path><path d="M338.14351013 932.3365768m-5.95487605 0a5.95487605 5.95487605 0 1 0 11.90975209 0 5.95487605 5.95487605 0 1 0-11.90975209 0Z" fill="#FFFFFF" p-id="12205"></path></svg>